<?xml version="1.0" encoding="UTF-8" standalone="no"?>
<svg viewBox="0 0 152.5 163.75" xml:space="preserve" xmlns="http://www.w3.org/2000/svg"><defs></defs><g transform="matrix(1.25,0,0,-1.25,0,163.75)"><g transform="scale(.24)"><path d="m360.191,469.195c-63.644,21.227-152.242,29.973-213.39-2.5-49.9104,17.485-96.0862,48.707-146.00022,66.192l38.68362-164.86c-38.68362-76.183-36.18752-187.336 11.2304-258.523 62.3942-92.422 172.2112-122.3985 275.7812-98.6681 77.371,23.7305 144.754,99.9141 162.227,177.3481 16.222,67.441 0,137.382-33.696,191.086 17.473,54.953 38.688,108.656 51.164,164.859l-146-74.934" fill="#231f20"></path><path d="m390.141,346.797c-21.215-12.488-47.422-22.481-48.668-51.203 31.195,1.246 56.152,19.98 74.871,42.461-3.742,8.742-16.223,9.992-26.203,8.742" fill="#fff"></path><path d="m320.258,211.914c-23.711,27.477-59.899,36.219-94.84,27.477-28.699-7.493-57.402-32.473-66.137-59.95-8.734-29.972-11.23-59.949 2.496-87.4254s41.18-42.4609 66.137-53.7031c33.691-3.7461 62.395,2.4961 87.352,21.2344 42.429,37.4648 48.668,112.4021 4.992,152.3671" fill="#fff"></path><path d="m300.293,196.93c-13.727-1.254-28.703-9.996-29.949-23.731-2.496-17.488 6.238-32.476 19.965-38.719 18.718-6.246 31.199,7.493 39.933,19.985 7.485,22.48-11.23,42.465-29.949,42.465" fill="#231f20"></path><path d="m206.699,194.43c-11.23-4.996-23.707-12.489-29.945-24.977-1.25-19.984 11.23-34.973 29.945-38.719 12.481,0 24.961,9.989 29.949,21.231 7.489,17.488-8.734,42.465-29.949,42.465" fill="#231f20"></path><path d="m153.043,329.313c-16.223,8.742-39.934,9.992-57.4024,8.742-2.4961-19.985 26.2074-34.969 42.4254-42.461l42.43-6.246c0,17.484-13.726,31.222-27.453,39.965" fill="#fff"></path></g></g></svg>
